<mxfile host="app.diagrams.net" agent="Mozilla/5.0 (Windows NT 10.0; Win64; x64) AppleWebKit/537.36 (KHTML, like Gecko) Chrome/128.0.0.0 Safari/537.36 OPR/114.0.0.0" version="24.8.8">
  <diagram name="Page-1" id="Ot65Yj-j9cXuBnusAZyQ">
    <mxGraphModel grid="1" page="1" gridSize="10" guides="1" tooltips="1" connect="1" arrows="1" fold="1" pageScale="1" pageWidth="850" pageHeight="1100" math="0" shadow="0">
      <root>
        <mxCell id="0" />
        <mxCell id="1" parent="0" />
        <mxCell id="0Q2mUmNB3MQDMdZEaPB5-5" value="" style="edgeStyle=orthogonalEdgeStyle;rounded=0;orthogonalLoop=1;jettySize=auto;html=1;" edge="1" parent="1" source="0Q2mUmNB3MQDMdZEaPB5-1" target="0Q2mUmNB3MQDMdZEaPB5-4">
          <mxGeometry relative="1" as="geometry" />
        </mxCell>
        <mxCell id="0Q2mUmNB3MQDMdZEaPB5-1" value="Start" style="strokeWidth=2;html=1;shape=mxgraph.flowchart.start_1;whiteSpace=wrap;" vertex="1" parent="1">
          <mxGeometry x="40" y="30" width="100" height="60" as="geometry" />
        </mxCell>
        <mxCell id="0Q2mUmNB3MQDMdZEaPB5-7" value="" style="edgeStyle=orthogonalEdgeStyle;rounded=0;orthogonalLoop=1;jettySize=auto;html=1;" edge="1" parent="1" source="0Q2mUmNB3MQDMdZEaPB5-4" target="0Q2mUmNB3MQDMdZEaPB5-6">
          <mxGeometry relative="1" as="geometry" />
        </mxCell>
        <mxCell id="0Q2mUmNB3MQDMdZEaPB5-4" value="Setup" style="whiteSpace=wrap;html=1;strokeWidth=2;" vertex="1" parent="1">
          <mxGeometry x="30" y="130" width="120" height="60" as="geometry" />
        </mxCell>
        <mxCell id="0Q2mUmNB3MQDMdZEaPB5-8" style="edgeStyle=orthogonalEdgeStyle;rounded=0;orthogonalLoop=1;jettySize=auto;html=1;entryX=1.013;entryY=0.576;entryDx=0;entryDy=0;entryPerimeter=0;" edge="1" parent="1" source="0Q2mUmNB3MQDMdZEaPB5-6" target="0Q2mUmNB3MQDMdZEaPB5-6">
          <mxGeometry relative="1" as="geometry">
            <mxPoint x="140" y="360" as="targetPoint" />
            <Array as="points">
              <mxPoint x="90" y="320" />
              <mxPoint x="180" y="320" />
              <mxPoint x="180" y="265" />
            </Array>
          </mxGeometry>
        </mxCell>
        <mxCell id="0Q2mUmNB3MQDMdZEaPB5-6" value="Start MAIN" style="whiteSpace=wrap;html=1;strokeWidth=2;" vertex="1" parent="1">
          <mxGeometry x="30" y="230" width="120" height="60" as="geometry" />
        </mxCell>
        <mxCell id="0Q2mUmNB3MQDMdZEaPB5-40" value="" style="edgeStyle=orthogonalEdgeStyle;rounded=0;orthogonalLoop=1;jettySize=auto;html=1;" edge="1" parent="1" source="0Q2mUmNB3MQDMdZEaPB5-9" target="0Q2mUmNB3MQDMdZEaPB5-39">
          <mxGeometry relative="1" as="geometry" />
        </mxCell>
        <mxCell id="0Q2mUmNB3MQDMdZEaPB5-9" value="ISR" style="strokeWidth=2;html=1;shape=mxgraph.flowchart.start_1;whiteSpace=wrap;" vertex="1" parent="1">
          <mxGeometry x="280" y="30" width="100" height="60" as="geometry" />
        </mxCell>
        <mxCell id="0Q2mUmNB3MQDMdZEaPB5-15" value="" style="edgeStyle=orthogonalEdgeStyle;rounded=0;orthogonalLoop=1;jettySize=auto;html=1;" edge="1" parent="1" source="0Q2mUmNB3MQDMdZEaPB5-10" target="0Q2mUmNB3MQDMdZEaPB5-14">
          <mxGeometry relative="1" as="geometry" />
        </mxCell>
        <mxCell id="0Q2mUmNB3MQDMdZEaPB5-44" value="" style="edgeStyle=orthogonalEdgeStyle;rounded=0;orthogonalLoop=1;jettySize=auto;html=1;" edge="1" parent="1" source="0Q2mUmNB3MQDMdZEaPB5-10" target="0Q2mUmNB3MQDMdZEaPB5-43">
          <mxGeometry relative="1" as="geometry" />
        </mxCell>
        <mxCell id="0Q2mUmNB3MQDMdZEaPB5-10" value="Player 1&lt;div&gt;Score?&lt;/div&gt;" style="rhombus;whiteSpace=wrap;html=1;strokeWidth=2;" vertex="1" parent="1">
          <mxGeometry x="290" y="230" width="80" height="80" as="geometry" />
        </mxCell>
        <mxCell id="0Q2mUmNB3MQDMdZEaPB5-17" value="" style="edgeStyle=orthogonalEdgeStyle;rounded=0;orthogonalLoop=1;jettySize=auto;html=1;" edge="1" parent="1" source="0Q2mUmNB3MQDMdZEaPB5-14" target="0Q2mUmNB3MQDMdZEaPB5-16">
          <mxGeometry relative="1" as="geometry" />
        </mxCell>
        <mxCell id="0Q2mUmNB3MQDMdZEaPB5-46" value="" style="edgeStyle=orthogonalEdgeStyle;rounded=0;orthogonalLoop=1;jettySize=auto;html=1;" edge="1" parent="1" source="0Q2mUmNB3MQDMdZEaPB5-14" target="0Q2mUmNB3MQDMdZEaPB5-45">
          <mxGeometry relative="1" as="geometry" />
        </mxCell>
        <mxCell id="0Q2mUmNB3MQDMdZEaPB5-14" value="Player 2&lt;div&gt;Score?&lt;/div&gt;" style="rhombus;whiteSpace=wrap;html=1;strokeWidth=2;" vertex="1" parent="1">
          <mxGeometry x="290" y="340" width="80" height="80" as="geometry" />
        </mxCell>
        <mxCell id="0Q2mUmNB3MQDMdZEaPB5-19" value="" style="edgeStyle=orthogonalEdgeStyle;rounded=0;orthogonalLoop=1;jettySize=auto;html=1;" edge="1" parent="1" source="0Q2mUmNB3MQDMdZEaPB5-16" target="0Q2mUmNB3MQDMdZEaPB5-18">
          <mxGeometry relative="1" as="geometry" />
        </mxCell>
        <mxCell id="0Q2mUmNB3MQDMdZEaPB5-26" value="" style="edgeStyle=orthogonalEdgeStyle;rounded=0;orthogonalLoop=1;jettySize=auto;html=1;" edge="1" parent="1" source="0Q2mUmNB3MQDMdZEaPB5-16" target="0Q2mUmNB3MQDMdZEaPB5-25">
          <mxGeometry relative="1" as="geometry" />
        </mxCell>
        <mxCell id="0Q2mUmNB3MQDMdZEaPB5-16" value="SSP1IF?" style="rhombus;whiteSpace=wrap;html=1;strokeWidth=2;" vertex="1" parent="1">
          <mxGeometry x="290" y="470" width="80" height="80" as="geometry" />
        </mxCell>
        <mxCell id="0Q2mUmNB3MQDMdZEaPB5-21" value="" style="edgeStyle=orthogonalEdgeStyle;rounded=0;orthogonalLoop=1;jettySize=auto;html=1;" edge="1" parent="1" source="0Q2mUmNB3MQDMdZEaPB5-18" target="0Q2mUmNB3MQDMdZEaPB5-20">
          <mxGeometry relative="1" as="geometry" />
        </mxCell>
        <mxCell id="0Q2mUmNB3MQDMdZEaPB5-31" value="" style="edgeStyle=orthogonalEdgeStyle;rounded=0;orthogonalLoop=1;jettySize=auto;html=1;" edge="1" parent="1" source="0Q2mUmNB3MQDMdZEaPB5-18" target="0Q2mUmNB3MQDMdZEaPB5-30">
          <mxGeometry relative="1" as="geometry" />
        </mxCell>
        <mxCell id="0Q2mUmNB3MQDMdZEaPB5-18" value="Master&lt;div&gt;Write?&lt;/div&gt;" style="rhombus;whiteSpace=wrap;html=1;strokeWidth=2;" vertex="1" parent="1">
          <mxGeometry x="420" y="470" width="80" height="80" as="geometry" />
        </mxCell>
        <mxCell id="0Q2mUmNB3MQDMdZEaPB5-23" value="" style="edgeStyle=orthogonalEdgeStyle;rounded=0;orthogonalLoop=1;jettySize=auto;html=1;" edge="1" parent="1" source="0Q2mUmNB3MQDMdZEaPB5-20" target="0Q2mUmNB3MQDMdZEaPB5-22">
          <mxGeometry relative="1" as="geometry" />
        </mxCell>
        <mxCell id="0Q2mUmNB3MQDMdZEaPB5-29" style="edgeStyle=orthogonalEdgeStyle;rounded=0;orthogonalLoop=1;jettySize=auto;html=1;" edge="1" parent="1" source="0Q2mUmNB3MQDMdZEaPB5-20">
          <mxGeometry relative="1" as="geometry">
            <mxPoint x="330" y="630" as="targetPoint" />
          </mxGeometry>
        </mxCell>
        <mxCell id="0Q2mUmNB3MQDMdZEaPB5-20" value="Enabled&lt;div&gt;Already?&lt;/div&gt;" style="rhombus;whiteSpace=wrap;html=1;strokeWidth=2;" vertex="1" parent="1">
          <mxGeometry x="420" y="590" width="80" height="80" as="geometry" />
        </mxCell>
        <mxCell id="0Q2mUmNB3MQDMdZEaPB5-28" value="" style="edgeStyle=orthogonalEdgeStyle;rounded=0;orthogonalLoop=1;jettySize=auto;html=1;" edge="1" parent="1" source="0Q2mUmNB3MQDMdZEaPB5-22">
          <mxGeometry relative="1" as="geometry">
            <mxPoint x="330" y="730" as="targetPoint" />
          </mxGeometry>
        </mxCell>
        <mxCell id="0Q2mUmNB3MQDMdZEaPB5-22" value="Enable Target" style="shape=parallelogram;perimeter=parallelogramPerimeter;whiteSpace=wrap;html=1;fixedSize=1;strokeWidth=2;" vertex="1" parent="1">
          <mxGeometry x="405" y="700" width="110" height="60" as="geometry" />
        </mxCell>
        <mxCell id="0Q2mUmNB3MQDMdZEaPB5-24" value="End ISR" style="strokeWidth=2;html=1;shape=mxgraph.flowchart.start_1;whiteSpace=wrap;" vertex="1" parent="1">
          <mxGeometry x="280" y="890" width="100" height="60" as="geometry" />
        </mxCell>
        <mxCell id="0Q2mUmNB3MQDMdZEaPB5-27" style="edgeStyle=orthogonalEdgeStyle;rounded=0;orthogonalLoop=1;jettySize=auto;html=1;entryX=0.5;entryY=0;entryDx=0;entryDy=0;entryPerimeter=0;" edge="1" parent="1" source="0Q2mUmNB3MQDMdZEaPB5-25" target="0Q2mUmNB3MQDMdZEaPB5-24">
          <mxGeometry relative="1" as="geometry">
            <mxPoint x="330" y="870" as="targetPoint" />
          </mxGeometry>
        </mxCell>
        <mxCell id="0Q2mUmNB3MQDMdZEaPB5-25" value="Reset Interrupt&lt;div&gt;Flags&lt;/div&gt;" style="shape=parallelogram;perimeter=parallelogramPerimeter;whiteSpace=wrap;html=1;fixedSize=1;strokeWidth=2;" vertex="1" parent="1">
          <mxGeometry x="270" y="790" width="120" height="60" as="geometry" />
        </mxCell>
        <mxCell id="0Q2mUmNB3MQDMdZEaPB5-35" value="" style="edgeStyle=orthogonalEdgeStyle;rounded=0;orthogonalLoop=1;jettySize=auto;html=1;" edge="1" parent="1" source="0Q2mUmNB3MQDMdZEaPB5-30" target="0Q2mUmNB3MQDMdZEaPB5-32">
          <mxGeometry relative="1" as="geometry" />
        </mxCell>
        <mxCell id="0Q2mUmNB3MQDMdZEaPB5-37" value="" style="edgeStyle=orthogonalEdgeStyle;rounded=0;orthogonalLoop=1;jettySize=auto;html=1;" edge="1" parent="1" source="0Q2mUmNB3MQDMdZEaPB5-30" target="0Q2mUmNB3MQDMdZEaPB5-36">
          <mxGeometry relative="1" as="geometry" />
        </mxCell>
        <mxCell id="0Q2mUmNB3MQDMdZEaPB5-30" value="Player&lt;div&gt;Score?&lt;/div&gt;" style="rhombus;whiteSpace=wrap;html=1;strokeWidth=2;" vertex="1" parent="1">
          <mxGeometry x="550" y="470" width="80" height="80" as="geometry" />
        </mxCell>
        <mxCell id="0Q2mUmNB3MQDMdZEaPB5-34" style="edgeStyle=orthogonalEdgeStyle;rounded=0;orthogonalLoop=1;jettySize=auto;html=1;entryX=1;entryY=0.5;entryDx=0;entryDy=0;" edge="1" parent="1" source="0Q2mUmNB3MQDMdZEaPB5-32" target="0Q2mUmNB3MQDMdZEaPB5-25">
          <mxGeometry relative="1" as="geometry">
            <mxPoint x="720" y="680" as="targetPoint" />
            <Array as="points">
              <mxPoint x="720" y="820" />
            </Array>
          </mxGeometry>
        </mxCell>
        <mxCell id="0Q2mUmNB3MQDMdZEaPB5-32" value="Report which&lt;div&gt;Player scored&lt;/div&gt;" style="shape=parallelogram;perimeter=parallelogramPerimeter;whiteSpace=wrap;html=1;fixedSize=1;strokeWidth=2;" vertex="1" parent="1">
          <mxGeometry x="660" y="480" width="120" height="60" as="geometry" />
        </mxCell>
        <mxCell id="0Q2mUmNB3MQDMdZEaPB5-38" style="edgeStyle=orthogonalEdgeStyle;rounded=0;orthogonalLoop=1;jettySize=auto;html=1;" edge="1" parent="1" source="0Q2mUmNB3MQDMdZEaPB5-36">
          <mxGeometry relative="1" as="geometry">
            <mxPoint x="590" y="820" as="targetPoint" />
          </mxGeometry>
        </mxCell>
        <mxCell id="0Q2mUmNB3MQDMdZEaPB5-36" value="Report no player&lt;div&gt;has scored&lt;/div&gt;" style="shape=parallelogram;perimeter=parallelogramPerimeter;whiteSpace=wrap;html=1;fixedSize=1;strokeWidth=2;" vertex="1" parent="1">
          <mxGeometry x="530" y="590" width="120" height="60" as="geometry" />
        </mxCell>
        <mxCell id="0Q2mUmNB3MQDMdZEaPB5-41" value="" style="edgeStyle=orthogonalEdgeStyle;rounded=0;orthogonalLoop=1;jettySize=auto;html=1;" edge="1" parent="1" source="0Q2mUmNB3MQDMdZEaPB5-39" target="0Q2mUmNB3MQDMdZEaPB5-10">
          <mxGeometry relative="1" as="geometry" />
        </mxCell>
        <mxCell id="0Q2mUmNB3MQDMdZEaPB5-42" style="edgeStyle=orthogonalEdgeStyle;rounded=0;orthogonalLoop=1;jettySize=auto;html=1;exitX=0;exitY=0.5;exitDx=0;exitDy=0;" edge="1" parent="1" source="0Q2mUmNB3MQDMdZEaPB5-39">
          <mxGeometry relative="1" as="geometry">
            <mxPoint x="330" y="440" as="targetPoint" />
            <Array as="points">
              <mxPoint x="270" y="160" />
              <mxPoint x="270" y="440" />
            </Array>
          </mxGeometry>
        </mxCell>
        <mxCell id="0Q2mUmNB3MQDMdZEaPB5-39" value="Target&lt;div&gt;Enabled?&lt;/div&gt;" style="rhombus;whiteSpace=wrap;html=1;strokeWidth=2;" vertex="1" parent="1">
          <mxGeometry x="290" y="120" width="80" height="80" as="geometry" />
        </mxCell>
        <mxCell id="0Q2mUmNB3MQDMdZEaPB5-50" style="edgeStyle=orthogonalEdgeStyle;rounded=0;orthogonalLoop=1;jettySize=auto;html=1;entryX=0.5;entryY=0;entryDx=0;entryDy=0;" edge="1" parent="1" source="0Q2mUmNB3MQDMdZEaPB5-43" target="0Q2mUmNB3MQDMdZEaPB5-47">
          <mxGeometry relative="1" as="geometry" />
        </mxCell>
        <mxCell id="0Q2mUmNB3MQDMdZEaPB5-43" value="Record Player 1&lt;div&gt;Score&lt;/div&gt;" style="shape=parallelogram;perimeter=parallelogramPerimeter;whiteSpace=wrap;html=1;fixedSize=1;strokeWidth=2;" vertex="1" parent="1">
          <mxGeometry x="395" y="240" width="125" height="60" as="geometry" />
        </mxCell>
        <mxCell id="0Q2mUmNB3MQDMdZEaPB5-48" value="" style="edgeStyle=orthogonalEdgeStyle;rounded=0;orthogonalLoop=1;jettySize=auto;html=1;" edge="1" parent="1" source="0Q2mUmNB3MQDMdZEaPB5-45" target="0Q2mUmNB3MQDMdZEaPB5-47">
          <mxGeometry relative="1" as="geometry" />
        </mxCell>
        <mxCell id="0Q2mUmNB3MQDMdZEaPB5-45" value="Record Player 2&lt;div&gt;Score&lt;/div&gt;" style="shape=parallelogram;perimeter=parallelogramPerimeter;whiteSpace=wrap;html=1;fixedSize=1;strokeWidth=2;" vertex="1" parent="1">
          <mxGeometry x="390" y="350" width="125" height="60" as="geometry" />
        </mxCell>
        <mxCell id="0Q2mUmNB3MQDMdZEaPB5-49" style="edgeStyle=orthogonalEdgeStyle;rounded=0;orthogonalLoop=1;jettySize=auto;html=1;" edge="1" parent="1" source="0Q2mUmNB3MQDMdZEaPB5-47">
          <mxGeometry relative="1" as="geometry">
            <mxPoint x="330" y="440" as="targetPoint" />
            <Array as="points">
              <mxPoint x="590" y="440" />
            </Array>
          </mxGeometry>
        </mxCell>
        <mxCell id="0Q2mUmNB3MQDMdZEaPB5-47" value="Disable&lt;div&gt;Target&lt;/div&gt;" style="shape=parallelogram;perimeter=parallelogramPerimeter;whiteSpace=wrap;html=1;fixedSize=1;strokeWidth=2;" vertex="1" parent="1">
          <mxGeometry x="530" y="350" width="120" height="60" as="geometry" />
        </mxCell>
        <mxCell id="0Q2mUmNB3MQDMdZEaPB5-51" value="Y" style="text;html=1;align=center;verticalAlign=middle;resizable=0;points=[];autosize=1;strokeColor=none;fillColor=none;" vertex="1" parent="1">
          <mxGeometry x="360" y="245" width="30" height="30" as="geometry" />
        </mxCell>
        <mxCell id="0Q2mUmNB3MQDMdZEaPB5-52" value="Y" style="text;html=1;align=center;verticalAlign=middle;resizable=0;points=[];autosize=1;strokeColor=none;fillColor=none;" vertex="1" parent="1">
          <mxGeometry x="300" y="190" width="30" height="30" as="geometry" />
        </mxCell>
        <mxCell id="0Q2mUmNB3MQDMdZEaPB5-54" value="Y" style="text;html=1;align=center;verticalAlign=middle;resizable=0;points=[];autosize=1;strokeColor=none;fillColor=none;" vertex="1" parent="1">
          <mxGeometry x="360" y="350" width="30" height="30" as="geometry" />
        </mxCell>
        <mxCell id="0Q2mUmNB3MQDMdZEaPB5-55" value="Y" style="text;html=1;align=center;verticalAlign=middle;resizable=0;points=[];autosize=1;strokeColor=none;fillColor=none;" vertex="1" parent="1">
          <mxGeometry x="360" y="480" width="30" height="30" as="geometry" />
        </mxCell>
        <mxCell id="0Q2mUmNB3MQDMdZEaPB5-56" value="Y" style="text;html=1;align=center;verticalAlign=middle;resizable=0;points=[];autosize=1;strokeColor=none;fillColor=none;" vertex="1" parent="1">
          <mxGeometry x="430" y="540" width="30" height="30" as="geometry" />
        </mxCell>
        <mxCell id="0Q2mUmNB3MQDMdZEaPB5-57" value="Y" style="text;html=1;align=center;verticalAlign=middle;resizable=0;points=[];autosize=1;strokeColor=none;fillColor=none;" vertex="1" parent="1">
          <mxGeometry x="620" y="480" width="30" height="30" as="geometry" />
        </mxCell>
        <mxCell id="0Q2mUmNB3MQDMdZEaPB5-58" value="Y" style="text;html=1;align=center;verticalAlign=middle;resizable=0;points=[];autosize=1;strokeColor=none;fillColor=none;" vertex="1" parent="1">
          <mxGeometry x="395" y="600" width="30" height="30" as="geometry" />
        </mxCell>
        <mxCell id="0Q2mUmNB3MQDMdZEaPB5-59" value="N" style="text;html=1;align=center;verticalAlign=middle;resizable=0;points=[];autosize=1;strokeColor=none;fillColor=none;" vertex="1" parent="1">
          <mxGeometry x="270" y="130" width="30" height="30" as="geometry" />
        </mxCell>
        <mxCell id="0Q2mUmNB3MQDMdZEaPB5-60" value="N" style="text;html=1;align=center;verticalAlign=middle;resizable=0;points=[];autosize=1;strokeColor=none;fillColor=none;" vertex="1" parent="1">
          <mxGeometry x="300" y="300" width="30" height="30" as="geometry" />
        </mxCell>
        <mxCell id="0Q2mUmNB3MQDMdZEaPB5-61" value="N" style="text;html=1;align=center;verticalAlign=middle;resizable=0;points=[];autosize=1;strokeColor=none;fillColor=none;" vertex="1" parent="1">
          <mxGeometry x="300" y="410" width="30" height="30" as="geometry" />
        </mxCell>
        <mxCell id="0Q2mUmNB3MQDMdZEaPB5-62" value="N" style="text;html=1;align=center;verticalAlign=middle;resizable=0;points=[];autosize=1;strokeColor=none;fillColor=none;" vertex="1" parent="1">
          <mxGeometry x="300" y="540" width="30" height="30" as="geometry" />
        </mxCell>
        <mxCell id="0Q2mUmNB3MQDMdZEaPB5-63" value="N" style="text;html=1;align=center;verticalAlign=middle;resizable=0;points=[];autosize=1;strokeColor=none;fillColor=none;" vertex="1" parent="1">
          <mxGeometry x="490" y="480" width="30" height="30" as="geometry" />
        </mxCell>
        <mxCell id="0Q2mUmNB3MQDMdZEaPB5-64" value="N" style="text;html=1;align=center;verticalAlign=middle;resizable=0;points=[];autosize=1;strokeColor=none;fillColor=none;" vertex="1" parent="1">
          <mxGeometry x="560" y="540" width="30" height="30" as="geometry" />
        </mxCell>
        <mxCell id="0Q2mUmNB3MQDMdZEaPB5-65" value="N" style="text;html=1;align=center;verticalAlign=middle;resizable=0;points=[];autosize=1;strokeColor=none;fillColor=none;" vertex="1" parent="1">
          <mxGeometry x="430" y="660" width="30" height="30" as="geometry" />
        </mxCell>
      </root>
    </mxGraphModel>
  </diagram>
</mxfile>
